<svg xmlns="http://www.w3.org/2000/svg" width="20" height="22" viewBox="0 0 20 22">
  <g id="shopping-bag" transform="translate(1 1)">
    <path id="Vector" d="M3,0,0,4V18a2,2,0,0,0,2,2H16a2,2,0,0,0,2-2V4L15,0Z" fill="none" stroke="#000" stroke-linecap="round" stroke-linejoin="round" stroke-width="2"/>
    <path id="Vector-2" data-name="Vector" d="M0,0H18" transform="translate(0 4)" fill="none" stroke="#000" stroke-linecap="round" stroke-linejoin="round" stroke-width="2"/>
    <path id="Vector-3" data-name="Vector" d="M8,0A4,4,0,0,1,6.828,2.828,4,4,0,0,1,4,4,4,4,0,0,1,1.172,2.828,4,4,0,0,1,0,0" transform="translate(5 8)" fill="none" stroke="#000" stroke-linecap="round" stroke-linejoin="round" stroke-width="2"/>
  </g>
</svg>
