<svg xmlns="http://www.w3.org/2000/svg" width="24" height="24" viewBox="0 0 24 24">
  <g id="Group_397" data-name="Group 397" transform="translate(-139 -531)">
    <circle id="Ellipse_4934" data-name="Ellipse 4934" cx="12" cy="12" r="12" transform="translate(139 531)" fill="#fff"/>
    <path id="Shape" d="M150.974,201.743h0a.462.462,0,0,1-.235-.065l-.153-.093a21.772,21.772,0,0,1-3.757-2.923,7.715,7.715,0,0,1-1.861-2.969,4.852,4.852,0,0,1,.126-3.439,3.939,3.939,0,0,1,2.426-2.2,4.1,4.1,0,0,1,3.284.338l.165.1.167-.1a4.109,4.109,0,0,1,3.117-.387l.167.049a3.942,3.942,0,0,1,2.428,2.2,4.866,4.866,0,0,1,.126,3.447,7.833,7.833,0,0,1-1.862,2.964,21.78,21.78,0,0,1-3.75,2.918l-.144.089A.456.456,0,0,1,150.974,201.743Zm-2.2-10.971a3.181,3.181,0,0,0-.976.153,3.4,3.4,0,0,0-1.964,4.479,6.879,6.879,0,0,0,1.635,2.607,20.811,20.811,0,0,0,3.589,2.794l-.089-.057.293-.184a20.81,20.81,0,0,0,2.875-2.236l.33-.314a6.865,6.865,0,0,0,1.635-2.6,3.4,3.4,0,0,0-1.966-4.489,3.2,3.2,0,0,0-2.9.488.458.458,0,0,1-.541.006l-.123-.089A3.185,3.185,0,0,0,148.772,190.772Zm5.648,3.947a.46.46,0,0,1-.455-.418,1.232,1.232,0,0,0-.852-1.079.457.457,0,1,1,.278-.871,2.145,2.145,0,0,1,1.486,1.873.456.456,0,0,1-.417.494Z" transform="translate(0 348)" fill="#707070"/>
  </g>
</svg>
