<svg xmlns="http://www.w3.org/2000/svg" width="24" height="24" viewBox="0 0 24 24">
  <g id="Group_397" data-name="Group 397" transform="translate(-139 -531)">
    <g id="Group_667" data-name="Group 667">
      <circle id="Ellipse_4934" data-name="Ellipse 4934" cx="12" cy="12" r="12" transform="translate(139 531)" fill="#fff"/>
      <g id="heart-fill" transform="translate(143 532.17)">
        <path id="Path_30" data-name="Path 30" d="M12.336,3.83a4.162,4.162,0,0,0-3.43,1.8.885.885,0,0,1-.656.379.884.884,0,0,1-.655-.379,4.163,4.163,0,0,0-7.3,3.9c1.167,3.622,6.384,7.881,7.954,8.036,1.571-.155,6.787-4.414,7.954-8.036a4.16,4.16,0,0,0-3.868-5.7Z" transform="translate(0 0)" fill="#e31e24"/>
      </g>
    </g>
  </g>
</svg>
