<svg xmlns="http://www.w3.org/2000/svg" width="24.815" height="24.814" viewBox="0 0 24.815 24.814">
  <g id="my_order" transform="translate(0 -0.007)">
    <g id="Group_346" data-name="Group 346" transform="translate(4.657 0.007)">
      <path id="Path_27" data-name="Path 27" d="M207.053,24.251a1.139,1.139,0,0,0,.83-.373,1.166,1.166,0,0,0,.293-.764V1.152A1.146,1.146,0,0,0,207.03.007H192.7a2.58,2.58,0,0,1,.634,1.008h.846a1.149,1.149,0,0,1,1.144,1.06h2.817a1.844,1.844,0,0,1,1.844,1.841V24.259Z" transform="translate(-188.02 -0.007)" fill="#7d7d7d"/>
      <path id="Path_28" data-name="Path 28" d="M99.927,18.43a1,1,0,0,0-2.006,0,.8.8,0,0,1-.8.781h-1.06c0,.178,0,.7,0,.872h5.719c0-.234,0-.647,0-.872h-1.06A.8.8,0,0,1,99.927,18.43Z" transform="translate(-96.064 -16.608)" fill="#7d7d7d"/>
    </g>
    <path id="Path_29" data-name="Path 29" d="M14.784,75.559H11.97v.167a1.242,1.242,0,0,1-1.241,1.241H4.306a1.242,1.242,0,0,1-1.241-1.241v-.167H.25A.248.248,0,0,0,0,75.8v20.66a.248.248,0,0,0,.25.246H14.784a.248.248,0,0,0,.25-.246V75.8A.248.248,0,0,0,14.784,75.559ZM1.752,80.222a.8.8,0,0,1,1.133-.057l.395.357,1.472-1.681A.8.8,0,0,1,5.959,79.9L3.95,82.192a.825.825,0,0,1-1.142.066l-1-.9a.8.8,0,0,1-.057-1.133ZM12.678,94.907H2.281a.8.8,0,0,1,0-1.6h10.4a.8.8,0,1,1,0,1.6ZM1.752,89.417a.8.8,0,0,1,1.133-.057l.395.357,1.472-1.681a.8.8,0,0,1,1.207,1.057L3.95,91.388a.825.825,0,0,1-1.142.066l-1-.9a.8.8,0,0,1-.057-1.133Zm10.926,2.21H8.168a.8.8,0,0,1,0-1.6h4.51a.8.8,0,1,1,0,1.6Zm0-5.865H2.281a.8.8,0,0,1,0-1.6h10.4a.8.8,0,1,1,0,1.6Zm0-3.327H8.168a.8.8,0,0,1,0-1.6h4.51a.8.8,0,1,1,0,1.6Z" transform="translate(0 -71.889)" fill="#7d7d7d"/>
  </g>
</svg>
