<svg xmlns="http://www.w3.org/2000/svg" width="19.278" height="21.404" viewBox="0 0 19.278 21.404">
  <g id="bell_1" data-name="bell 1" transform="translate(0.2 0.2)">
    <g id="_28" data-name="28">
      <g id="Vector">
        <path d="M 9.438961982727051 21.103759765625 C 8.553421974182129 21.103759765625 7.688131809234619 20.79512023925781 7.002481937408447 20.23470878601074 C 6.338016986846924 19.69160652160645 5.871686935424805 18.93603897094727 5.683125495910645 18.10000038146973 L 1.496461987495422 18.10000038146973 C 1.186342000961304 18.09926986694336 0.8853619694709778 18.00938987731934 0.6258119940757751 17.84006881713867 C 0.3662619888782501 17.6707706451416 0.1627219766378403 17.43152046203613 0.03718198090791702 17.1481990814209 C -0.08835801482200623 16.8648796081543 -0.1288580149412155 16.55337905883789 -0.07993801683187485 16.24737930297852 C -0.03134548664093018 15.94349002838135 0.1027193367481232 15.66197776794434 0.3079202473163605 15.432785987854 L 1.586851954460144 13.59291934967041 C 1.751142024993896 13.3575496673584 1.838292002677917 13.08159923553467 1.838961958885193 12.79475975036621 L 1.838961958885193 7.499999523162842 C 1.838961958885193 5.469969749450684 2.629502058029175 3.561439752578735 4.06495189666748 2.125989675521851 C 5.500401973724365 0.6905397176742554 7.408932209014893 -0.1000003069639206 9.438961982727051 -0.1000003069639206 C 11.46899223327637 -0.1000003069639206 13.37752151489258 0.6905397176742554 14.81297206878662 2.125989675521851 C 16.24842262268066 3.561439752578735 17.03896141052246 5.469969749450684 17.03896141052246 7.499999523162842 L 17.03896141052246 12.79500007629395 C 17.03963279724121 13.0815896987915 17.12678146362305 13.35754013061523 17.29096221923828 13.59276962280273 L 18.57000350952148 15.432785987854 C 18.77520370483398 15.66197776794434 18.90926933288574 15.94349002838135 18.95786285400391 16.24737930297852 C 19.00678253173828 16.55336952209473 18.96628189086914 16.86487007141113 18.84075164794922 17.1481990814209 C 18.71520233154297 17.43152046203613 18.51165199279785 17.6707706451416 18.25211143493652 17.84008026123047 C 17.99256134033203 18.00938987731934 17.69158172607422 18.09926986694336 17.38169288635254 18.10000038146973 L 13.19479846954346 18.10000038146973 C 13.0062370300293 18.93603897094727 12.53990650177002 19.69160652160645 11.87543201446533 20.23470878601074 C 11.1898021697998 20.79512023925781 10.32451152801514 21.103759765625 9.438961982727051 21.103759765625 Z M 7.470352172851562 18.10000038146973 C 7.62617301940918 18.46303367614746 7.876827716827393 18.77345275878906 8.201512336730957 19.00372886657715 C 8.565292358398438 19.26171875 8.993291854858398 19.39875030517578 9.439242362976074 19.39999961853027 C 9.884632110595703 19.39875030517578 10.31263160705566 19.26171875 10.67641162872314 19.00372886657715 C 11.00110530853271 18.77344512939453 11.25175952911377 18.46302604675293 11.40757369995117 18.10000038146973 L 7.470352172851562 18.10000038146973 Z M 1.704740881919861 16.39999961853027 L 17.1732006072998 16.39999961853027 L 15.89682197570801 14.56203937530518 C 15.53342151641846 14.04140949249268 15.34047222137451 13.43038940429688 15.33896160125732 12.79523944854736 L 15.33896160125732 7.499999523162842 C 15.33896160125732 5.924049854278564 14.72525215148926 4.442429542541504 13.6108922958374 3.328069686889648 C 12.49653244018555 2.213709592819214 11.01491165161133 1.599999666213989 9.438961982727051 1.599999666213989 C 7.863011837005615 1.599999666213989 6.381392002105713 2.213709592819214 5.267032146453857 3.328069686889648 C 4.152671813964844 4.442429542541504 3.538961887359619 5.924049854278564 3.538961887359619 7.499999523162842 L 3.538961887359619 12.79500007629395 C 3.537451982498169 13.43038940429688 3.344501972198486 14.04140949249268 2.980962038040161 14.56223964691162 L 1.704740881919861 16.39999961853027 Z" stroke="none"/>
        <path d="M 9.438961982727051 21.00375938415527 C 10.30398178100586 21.00375938415527 11.14240169525146 20.70471000671387 11.81215190887451 20.15727996826172 C 12.48191165924072 19.60985946655273 12.94182205200195 18.84771919250488 13.11396217346191 18 L 17.38146209716797 18 C 17.67130279541016 17.99931907653809 17.95472145080566 17.91468048095703 18.19747161865234 17.75631904602051 C 18.44022178649902 17.59796905517578 18.63190269470215 17.3726692199707 18.74932289123535 17.10768890380859 C 18.86673164367676 16.84269905090332 18.90487289428711 16.54936981201172 18.85911178588867 16.26317024230957 C 18.81335258483887 15.97697925567627 18.6856517791748 15.71015930175781 18.49146270751953 15.49499988555908 L 17.20896148681641 13.64999961853027 C 17.03390121459961 13.39918994903564 16.93968200683594 13.10085964202881 16.93896102905273 12.79500007629395 L 16.93896102905273 7.499999523162842 C 16.93896102905273 5.510879516601562 16.14878273010254 3.603219747543335 14.74226188659668 2.196699619293213 C 13.33574199676514 0.7901796698570251 11.42808151245117 -3.079223631630157e-07 9.438961982727051 -3.079223631630157e-07 C 7.449841976165771 -3.079223631630157e-07 5.542181968688965 0.7901796698570251 4.135662078857422 2.196699619293213 C 2.7291419506073 3.603219747543335 1.938961982727051 5.510879516601562 1.938961982727051 7.499999523162842 L 1.938961982727051 12.79500007629395 C 1.938241958618164 13.10085964202881 1.844031929969788 13.39918994903564 1.668962001800537 13.64999961853027 L 0.3864619731903076 15.49499988555908 C 0.1922719776630402 15.71015930175781 0.06457198411226273 15.97697925567627 0.01881198212504387 16.26317024230957 C -0.02694801799952984 16.54936981201172 0.01119198277592659 16.84269905090332 0.1286119818687439 17.10768890380859 C 0.2460219860076904 17.3726692199707 0.4377019703388214 17.59796905517578 0.6804519891738892 17.75631904602051 C 0.9232019782066345 17.91468048095703 1.206632018089294 17.99931907653809 1.496461987495422 18 L 5.763961791992188 18 C 5.936101913452148 18.84771919250488 6.396011829376221 19.60985946655273 7.06577205657959 20.15727996826172 C 7.735531806945801 20.70471000671387 8.573942184448242 21.00375938415527 9.438961982727051 21.00375938415527 M 7.323962211608887 18 L 11.55396175384521 18 C 11.39923191070557 18.43766021728516 11.11291217803955 18.81674957275391 10.73426151275635 19.08530044555664 C 10.35561180114746 19.35383987426758 9.903171539306641 19.49869918823242 9.438961982727051 19.5 C 8.974752426147461 19.49869918823242 8.522312164306641 19.35383987426758 8.143662452697754 19.08530044555664 C 7.765011787414551 18.81674957275391 7.478702068328857 18.43766021728516 7.323962211608887 18 M 17.38146209716797 16.5 L 1.496461987495422 16.5 C 1.530362010002136 16.46854019165039 1.560562014579773 16.43330955505371 1.586462020874023 16.39500045776367 L 2.898962020874023 14.50500011444092 C 3.249091863632202 14.00338935852051 3.437511920928955 13.40672016143799 3.438961982727051 12.79500007629395 L 3.438961982727051 7.499999523162842 C 3.438961982727051 5.908699512481689 4.071102142333984 4.382579803466797 5.196321964263916 3.257359743118286 C 6.321541786193848 2.132139682769775 7.847661972045898 1.499999642372131 9.438961982727051 1.499999642372131 C 11.0302619934082 1.499999642372131 12.55638217926025 2.132139682769775 13.68160152435303 3.257359743118286 C 14.80682182312012 4.382579803466797 15.43896198272705 5.908699512481689 15.43896198272705 7.499999523162842 L 15.43896198272705 12.79500007629395 C 15.44041156768799 13.40672016143799 15.62883186340332 14.00338935852051 15.97896194458008 14.50500011444092 L 17.29146194458008 16.39500045776367 C 17.3173713684082 16.43330955505371 17.34756278991699 16.46854019165039 17.38146209716797 16.5 M 9.438961982727051 21.20376014709473 C 8.530422210693359 21.20376014709473 7.642662048339844 20.88710975646973 6.939201831817627 20.31212997436523 C 6.278162479400635 19.77184104919434 5.808298110961914 19.0267276763916 5.604007244110107 18.19999885559082 L 1.496461987495422 18.19999885559082 C 1.166741967201233 18.1992301940918 0.8469420075416565 18.10372924804688 0.5711719989776611 17.92383003234863 C 0.2954119741916656 17.74394035339355 0.07914198189973831 17.4897403717041 -0.05423801764845848 17.1887092590332 C -0.1876280158758163 16.88768005371094 -0.2306580245494843 16.55670928955078 -0.1786780208349228 16.23159027099609 C -0.1273864656686783 15.91077613830566 0.01359388045966625 15.6133975982666 0.2292695641517639 15.37073993682861 L 1.504742026329041 13.53584957122803 C 1.657421946525574 13.31711006164551 1.738332033157349 13.06087970733643 1.738961935043335 12.79452991485596 L 1.738961935043335 7.499999523162842 C 1.738961935043335 5.443259716033936 2.539901971817017 3.50961971282959 3.994241952896118 2.055279731750488 C 5.448582172393799 0.6009396910667419 7.382222175598145 -0.2000003010034561 9.438961982727051 -0.2000003010034561 C 11.49570178985596 -0.2000003010034561 13.42934226989746 0.6009396910667419 14.88368225097656 2.055279731750488 C 16.33802223205566 3.50961971282959 17.13896179199219 5.443259716033936 17.13896179199219 7.499999523162842 L 17.13896179199219 12.79500007629395 C 17.13959121704102 13.06086921691895 17.22050285339355 13.31709957122803 17.37296104431152 13.53553009033203 L 18.64865493774414 15.37073993682861 C 18.86433029174805 15.6133975982666 19.00531005859375 15.91077613830566 19.05660247802734 16.23159027099609 C 19.10858154296875 16.55670928955078 19.06556129455566 16.88767051696777 18.93218231201172 17.1887092590332 C 18.79878234863281 17.48974990844727 18.58251190185547 17.74394035339355 18.30674171447754 17.92383003234863 C 18.03098106384277 18.10372924804688 17.711181640625 18.1992301940918 17.38193130493164 18.19999885559082 L 13.27391624450684 18.19999885559082 C 13.06962585449219 19.02672958374023 12.59976100921631 19.77184104919434 11.93872165679932 20.3121395111084 C 11.23527240753174 20.88710975646973 10.34751224517822 21.20376014709473 9.438961982727051 21.20376014709473 Z M 7.628401756286621 18.19999885559082 C 7.777679920196533 18.48637199401855 7.992246150970459 18.73271179199219 8.25936222076416 18.92215919494629 C 8.606222152709961 19.16815948486328 9.014311790466309 19.29880905151367 9.439521789550781 19.29999923706055 C 9.863612174987793 19.29880905151367 10.27170181274414 19.16815948486328 10.61856174468994 18.92215919494629 C 10.88568592071533 18.73271179199219 11.10025310516357 18.48636436462402 11.24952793121338 18.19999885559082 L 7.628401756286621 18.19999885559082 Z M 1.895926475524902 16.29999923706055 L 16.98200607299805 16.29999923706055 L 15.8146915435791 14.61907958984375 C 15.4396915435791 14.08185005187988 15.24051189422607 13.4511194229126 15.23896217346191 12.79546928405762 L 15.23896217346191 7.499999523162842 C 15.23896217346191 5.950759887695312 14.63565158843994 4.494259834289551 13.54018211364746 3.398779630661011 C 12.4447021484375 2.303309679031372 10.98820209503174 1.699999690055847 9.438961982727051 1.699999690055847 C 7.889721870422363 1.699999690055847 6.433221817016602 2.303309679031372 5.337741851806641 3.398779630661011 C 4.242271900177002 4.494259834289551 3.638962030410767 5.950759887695312 3.638962030410767 7.499999523162842 L 3.638962030410767 12.79500007629395 C 3.637412071228027 13.4511194229126 3.438231945037842 14.08185005187988 3.062962055206299 14.61946964263916 L 1.895926475524902 16.29999923706055 Z" stroke="none" fill="#722ed1"/>
      </g>
    </g>
  </g>
</svg>
